<?xml version="1.0" encoding="UTF-8" standalone="no"?>
<!DOCTYPE svg PUBLIC "-//W3C//DTD SVG 1.1//EN"
 "http://www.w3.org/Graphics/SVG/1.1/DTD/svg11.dtd">
<!-- Generated by graphviz version 2.26.3 (20100126.1600)
 -->
<!-- Title: CFG for &#39;main&#39; function Pages: 1 -->
<svg width="624pt" height="1280pt"
 viewBox="0.00 0.00 624.00 1280.00" xmlns="http://www.w3.org/2000/svg" xmlns:xlink="http://www.w3.org/1999/xlink">
<g id="graph1" class="graph" transform="scale(1 1) rotate(0) translate(4 1276)">
<title>CFG for &#39;main&#39; function</title>
<polygon fill="white" stroke="white" points="-4,5 -4,-1276 621,-1276 621,5 -4,5"/>
<text text-anchor="middle" x="308" y="-9.4" font-family="Times Roman,serif" font-size="14.00">CFG for &#39;main&#39; function</text>
<!-- Node0xa331910 -->
<g id="node1" class="node"><title>Node0xa331910</title>
<polygon fill="none" stroke="black" points="96.5,-1211 96.5,-1271 195.5,-1271 195.5,-1211 96.5,-1211"/>
<text text-anchor="start" x="104.5" y="-1254.4" font-family="Times Roman,serif" font-size="14.00">%0:</text>
<text text-anchor="start" x="104.5" y="-1220.4" font-family="Times Roman,serif" font-size="14.00"> br label %1</text>
</g>
<!-- Node0xa331940 -->
<g id="node3" class="node"><title>Node0xa331940</title>
<polygon fill="none" stroke="black" points="-0.5,-1033 -0.5,-1173 292.5,-1173 292.5,-1033 -0.5,-1033"/>
<text text-anchor="start" x="7.5" y="-1156.4" font-family="Times Roman,serif" font-size="14.00">%1:</text>
<text text-anchor="start" x="7.5" y="-1122.4" font-family="Times Roman,serif" font-size="14.00"> %x.0 = phi i32 [ 0, %0 ], [ %18, %17 ]</text>
<text text-anchor="start" x="7.5" y="-1104.4" font-family="Times Roman,serif" font-size="14.00"> %d.0 = phi i32 [ 1, %0 ], [ %d.4, %17 ]</text>
<text text-anchor="start" x="7.5" y="-1086.4" font-family="Times Roman,serif" font-size="14.00"> %2 = icmp sgt i32 %x.0, 0</text>
<text text-anchor="start" x="7.5" y="-1068.4" font-family="Times Roman,serif" font-size="14.00"> br i1 %2, label %3, label %4</text>
<polyline fill="none" stroke="black" points="-0.5,-1059 292.5,-1059 "/>
<text text-anchor="middle" x="73" y="-1042.4" font-family="Times Roman,serif" font-size="14.00">T</text>
<polyline fill="none" stroke="black" points="146.5,-1033 146.5,-1059 "/>
<text text-anchor="middle" x="219.5" y="-1042.4" font-family="Times Roman,serif" font-size="14.00">F</text>
</g>
<!-- Node0xa331910&#45;&gt;Node0xa331940 -->
<g id="edge2" class="edge"><title>Node0xa331910&#45;&gt;Node0xa331940</title>
<path fill="none" stroke="black" d="M146,-1210.72C146,-1202.41 146,-1193 146,-1183.29"/>
<polygon fill="black" stroke="black" points="149.5,-1183.09 146,-1173.09 142.5,-1183.09 149.5,-1183.09"/>
</g>
<!-- Node0xa331970 -->
<g id="node5" class="node"><title>Node0xa331970</title>
<polygon fill="none" stroke="black" points="19.5,-686 19.5,-746 118.5,-746 118.5,-686 19.5,-686"/>
<text text-anchor="start" x="27.5" y="-729.4" font-family="Times Roman,serif" font-size="14.00">%3:</text>
<text text-anchor="start" x="27.5" y="-695.4" font-family="Times Roman,serif" font-size="14.00"> br label %9</text>
</g>
<!-- Node0xa331940&#45;&gt;Node0xa331970 -->
<g id="edge4" class="edge"><title>Node0xa331940:s0&#45;&gt;Node0xa331970</title>
<path fill="none" stroke="black" d="M73,-1033C73,-933.57 71.0081,-816.611 69.8355,-756.377"/>
<polygon fill="black" stroke="black" points="73.3306,-756.086 69.6338,-746.157 66.3319,-756.224 73.3306,-756.086"/>
</g>
<!-- Node0xa3319a0 -->
<g id="node7" class="node"><title>Node0xa3319a0</title>
<polygon fill="none" stroke="black" points="174,-891 174,-995 390,-995 390,-891 174,-891"/>
<text text-anchor="start" x="182" y="-978.4" font-family="Times Roman,serif" font-size="14.00">%4:</text>
<text text-anchor="start" x="182" y="-944.4" font-family="Times Roman,serif" font-size="14.00"> %5 = icmp slt i32 %x.0, 0</text>
<text text-anchor="start" x="182" y="-926.4" font-family="Times Roman,serif" font-size="14.00"> br i1 %5, label %6, label %7</text>
<polyline fill="none" stroke="black" points="174,-917 390,-917 "/>
<text text-anchor="middle" x="228" y="-900.4" font-family="Times Roman,serif" font-size="14.00">T</text>
<polyline fill="none" stroke="black" points="282,-891 282,-917 "/>
<text text-anchor="middle" x="336" y="-900.4" font-family="Times Roman,serif" font-size="14.00">F</text>
</g>
<!-- Node0xa331940&#45;&gt;Node0xa3319a0 -->
<g id="edge6" class="edge"><title>Node0xa331940:s1&#45;&gt;Node0xa3319a0</title>
<path fill="none" stroke="black" d="M294,-1046C313.916,-1046 314.378,-1026.76 308.481,-1004.92"/>
<polygon fill="black" stroke="black" points="311.752,-1003.65 305.487,-995.104 305.056,-1005.69 311.752,-1003.65"/>
</g>
<!-- Node0xa330ef8 -->
<g id="node9" class="node"><title>Node0xa330ef8</title>
<polygon fill="none" stroke="black" points="173.5,-517 173.5,-639 484.5,-639 484.5,-517 173.5,-517"/>
<text text-anchor="start" x="181.5" y="-622.4" font-family="Times Roman,serif" font-size="14.00">%9:</text>
<text text-anchor="start" x="181.5" y="-588.4" font-family="Times Roman,serif" font-size="14.00"> %d.2 = phi i32 [ %d.0, %3 ], [ %d.1, %8 ]</text>
<text text-anchor="start" x="181.5" y="-570.4" font-family="Times Roman,serif" font-size="14.00"> %10 = icmp sgt i32 %x.0, 1000</text>
<text text-anchor="start" x="181.5" y="-552.4" font-family="Times Roman,serif" font-size="14.00"> br i1 %10, label %11, label %12</text>
<polyline fill="none" stroke="black" points="173.5,-543 484.5,-543 "/>
<text text-anchor="middle" x="251.5" y="-526.4" font-family="Times Roman,serif" font-size="14.00">T</text>
<polyline fill="none" stroke="black" points="329.5,-517 329.5,-543 "/>
<text text-anchor="middle" x="407" y="-526.4" font-family="Times Roman,serif" font-size="14.00">F</text>
</g>
<!-- Node0xa331970&#45;&gt;Node0xa330ef8 -->
<g id="edge8" class="edge"><title>Node0xa331970&#45;&gt;Node0xa330ef8</title>
<path fill="none" stroke="black" d="M118.516,-689.718C143.19,-676.622 174.242,-660.141 204.86,-643.89"/>
<polygon fill="black" stroke="black" points="206.716,-646.867 213.908,-639.087 203.434,-640.684 206.716,-646.867"/>
</g>
<!-- Node0xa3319d0 -->
<g id="node11" class="node"><title>Node0xa3319d0</title>
<polygon fill="none" stroke="black" points="175.5,-793 175.5,-853 274.5,-853 274.5,-793 175.5,-793"/>
<text text-anchor="start" x="183.5" y="-836.4" font-family="Times Roman,serif" font-size="14.00">%6:</text>
<text text-anchor="start" x="183.5" y="-802.4" font-family="Times Roman,serif" font-size="14.00"> br label %8</text>
</g>
<!-- Node0xa3319a0&#45;&gt;Node0xa3319d0 -->
<g id="edge10" class="edge"><title>Node0xa3319a0:s0&#45;&gt;Node0xa3319d0</title>
<path fill="none" stroke="black" d="M228,-891C228,-881.985 227.734,-872.304 227.36,-863.155"/>
<polygon fill="black" stroke="black" points="230.854,-862.944 226.9,-853.115 223.861,-863.264 230.854,-862.944"/>
</g>
<!-- Node0xa331a00 -->
<g id="node13" class="node"><title>Node0xa331a00</title>
<polygon fill="none" stroke="black" points="291.5,-793 291.5,-853 390.5,-853 390.5,-793 291.5,-793"/>
<text text-anchor="start" x="299.5" y="-836.4" font-family="Times Roman,serif" font-size="14.00">%7:</text>
<text text-anchor="start" x="299.5" y="-802.4" font-family="Times Roman,serif" font-size="14.00"> br label %8</text>
</g>
<!-- Node0xa3319a0&#45;&gt;Node0xa331a00 -->
<g id="edge12" class="edge"><title>Node0xa3319a0:s1&#45;&gt;Node0xa331a00</title>
<path fill="none" stroke="black" d="M336,-891C336,-881.969 336.444,-872.282 337.067,-863.132"/>
<polygon fill="black" stroke="black" points="340.562,-863.33 337.833,-853.092 333.583,-862.797 340.562,-863.33"/>
</g>
<!-- Node0xa330f28 -->
<g id="node19" class="node"><title>Node0xa330f28</title>
<polygon fill="none" stroke="black" points="182,-170 182,-230 290,-230 290,-170 182,-170"/>
<text text-anchor="start" x="190" y="-213.4" font-family="Times Roman,serif" font-size="14.00">%11:</text>
<text text-anchor="start" x="190" y="-179.4" font-family="Times Roman,serif" font-size="14.00"> br label %17</text>
</g>
<!-- Node0xa330ef8&#45;&gt;Node0xa330f28 -->
<g id="edge20" class="edge"><title>Node0xa330ef8:s0&#45;&gt;Node0xa330f28</title>
<path fill="none" stroke="black" d="M251,-517C251,-417.467 243.53,-300.55 239.133,-240.35"/>
<polygon fill="black" stroke="black" points="242.606,-239.85 238.377,-230.136 235.625,-240.367 242.606,-239.85"/>
</g>
<!-- Node0xa330f58 -->
<g id="node21" class="node"><title>Node0xa330f58</title>
<polygon fill="none" stroke="black" points="285.5,-375 285.5,-479 528.5,-479 528.5,-375 285.5,-375"/>
<text text-anchor="start" x="293.5" y="-462.4" font-family="Times Roman,serif" font-size="14.00">%12:</text>
<text text-anchor="start" x="293.5" y="-428.4" font-family="Times Roman,serif" font-size="14.00"> %13 = icmp slt i32 %x.0, 1000</text>
<text text-anchor="start" x="293.5" y="-410.4" font-family="Times Roman,serif" font-size="14.00"> br i1 %13, label %14, label %15</text>
<polyline fill="none" stroke="black" points="285.5,-401 528.5,-401 "/>
<text text-anchor="middle" x="346.5" y="-384.4" font-family="Times Roman,serif" font-size="14.00">T</text>
<polyline fill="none" stroke="black" points="407.5,-375 407.5,-401 "/>
<text text-anchor="middle" x="468" y="-384.4" font-family="Times Roman,serif" font-size="14.00">F</text>
</g>
<!-- Node0xa330ef8&#45;&gt;Node0xa330f58 -->
<g id="edge22" class="edge"><title>Node0xa330ef8:s1&#45;&gt;Node0xa330f58</title>
<path fill="none" stroke="black" d="M407,-517C407,-508.145 407,-498.8 407,-489.616"/>
<polygon fill="black" stroke="black" points="410.5,-489.35 407,-479.35 403.5,-489.35 410.5,-489.35"/>
</g>
<!-- Node0xa331a30 -->
<g id="node15" class="node"><title>Node0xa331a30</title>
<polygon fill="none" stroke="black" points="187,-677 187,-755 471,-755 471,-677 187,-677"/>
<text text-anchor="start" x="195" y="-738.4" font-family="Times Roman,serif" font-size="14.00">%8:</text>
<text text-anchor="start" x="195" y="-704.4" font-family="Times Roman,serif" font-size="14.00"> %d.1 = phi i32 [ %d.0, %6 ], [ 1, %7 ]</text>
<text text-anchor="start" x="195" y="-686.4" font-family="Times Roman,serif" font-size="14.00"> br label %9</text>
</g>
<!-- Node0xa3319d0&#45;&gt;Node0xa331a30 -->
<g id="edge14" class="edge"><title>Node0xa3319d0&#45;&gt;Node0xa331a30</title>
<path fill="none" stroke="black" d="M254.247,-792.91C263.432,-783.459 273.798,-772.795 283.819,-762.484"/>
<polygon fill="black" stroke="black" points="286.574,-764.672 291.034,-755.061 281.554,-759.793 286.574,-764.672"/>
</g>
<!-- Node0xa331a00&#45;&gt;Node0xa331a30 -->
<g id="edge16" class="edge"><title>Node0xa331a00&#45;&gt;Node0xa331a30</title>
<path fill="none" stroke="black" d="M337.625,-792.91C336.658,-784.285 335.577,-774.649 334.517,-765.194"/>
<polygon fill="black" stroke="black" points="337.973,-764.609 333.381,-755.061 331.017,-765.389 337.973,-764.609"/>
</g>
<!-- Node0xa331a30&#45;&gt;Node0xa330ef8 -->
<g id="edge18" class="edge"><title>Node0xa331a30&#45;&gt;Node0xa330ef8</title>
<path fill="none" stroke="black" d="M329,-676.824C329,-668.222 329,-658.854 329,-649.425"/>
<polygon fill="black" stroke="black" points="332.5,-649.204 329,-639.204 325.5,-649.204 332.5,-649.204"/>
</g>
<!-- Node0xa331018 -->
<g id="node23" class="node"><title>Node0xa331018</title>
<polygon fill="none" stroke="black" points="71.5,-27 71.5,-123 400.5,-123 400.5,-27 71.5,-27"/>
<text text-anchor="start" x="79.5" y="-106.4" font-family="Times Roman,serif" font-size="14.00">%17:</text>
<text text-anchor="start" x="79.5" y="-72.4" font-family="Times Roman,serif" font-size="14.00"> %d.4 = phi i32 [ %d.2, %11 ], [ %d.3, %16 ]</text>
<text text-anchor="start" x="79.5" y="-54.4" font-family="Times Roman,serif" font-size="14.00"> %18 = add nsw i32 %x.0, %d.4</text>
<text text-anchor="start" x="79.5" y="-36.4" font-family="Times Roman,serif" font-size="14.00"> br label %1</text>
</g>
<!-- Node0xa330f28&#45;&gt;Node0xa331018 -->
<g id="edge24" class="edge"><title>Node0xa330f28&#45;&gt;Node0xa331018</title>
<path fill="none" stroke="black" d="M236,-169.741C236,-158.68 236,-145.765 236,-133.092"/>
<polygon fill="black" stroke="black" points="239.5,-133.021 236,-123.021 232.5,-133.021 239.5,-133.021"/>
</g>
<!-- Node0xa330f88 -->
<g id="node25" class="node"><title>Node0xa330f88</title>
<polygon fill="none" stroke="black" points="290,-277 290,-337 398,-337 398,-277 290,-277"/>
<text text-anchor="start" x="298" y="-320.4" font-family="Times Roman,serif" font-size="14.00">%14:</text>
<text text-anchor="start" x="298" y="-286.4" font-family="Times Roman,serif" font-size="14.00"> br label %16</text>
</g>
<!-- Node0xa330f58&#45;&gt;Node0xa330f88 -->
<g id="edge26" class="edge"><title>Node0xa330f58:s0&#45;&gt;Node0xa330f88</title>
<path fill="none" stroke="black" d="M346,-375C346,-365.99 345.822,-356.311 345.573,-347.162"/>
<polygon fill="black" stroke="black" points="349.07,-347.01 345.267,-337.122 342.073,-347.224 349.07,-347.01"/>
</g>
<!-- Node0xa330fb8 -->
<g id="node27" class="node"><title>Node0xa330fb8</title>
<polygon fill="none" stroke="black" points="416,-277 416,-337 524,-337 524,-277 416,-277"/>
<text text-anchor="start" x="424" y="-320.4" font-family="Times Roman,serif" font-size="14.00">%15:</text>
<text text-anchor="start" x="424" y="-286.4" font-family="Times Roman,serif" font-size="14.00"> br label %16</text>
</g>
<!-- Node0xa330f58&#45;&gt;Node0xa330fb8 -->
<g id="edge28" class="edge"><title>Node0xa330f58:s1&#45;&gt;Node0xa330fb8</title>
<path fill="none" stroke="black" d="M468,-375C468,-365.99 468.178,-356.311 468.427,-347.162"/>
<polygon fill="black" stroke="black" points="471.927,-347.224 468.733,-337.122 464.93,-347.01 471.927,-347.224"/>
</g>
<!-- Node0xa331018&#45;&gt;Node0xa331940 -->
<g id="edge36" class="edge"><title>Node0xa331018&#45;&gt;Node0xa331940</title>
<path fill="none" stroke="black" d="M194.284,-123.438C186.168,-134.836 178.488,-147.364 173,-160 146.538,-220.928 146,-240.574 146,-307 146,-823 146,-823 146,-823 146,-890.271 146,-966.634 146,-1022.6"/>
<polygon fill="black" stroke="black" points="142.5,-1022.81 146,-1032.81 149.5,-1022.81 142.5,-1022.81"/>
</g>
<!-- Node0xa330fe8 -->
<g id="node29" class="node"><title>Node0xa330fe8</title>
<polygon fill="none" stroke="black" points="308,-161 308,-239 616,-239 616,-161 308,-161"/>
<text text-anchor="start" x="316" y="-222.4" font-family="Times Roman,serif" font-size="14.00">%16:</text>
<text text-anchor="start" x="316" y="-188.4" font-family="Times Roman,serif" font-size="14.00"> %d.3 = phi i32 [ %d.2, %14 ], [ &#45;1, %15 ]</text>
<text text-anchor="start" x="316" y="-170.4" font-family="Times Roman,serif" font-size="14.00"> br label %17</text>
</g>
<!-- Node0xa330f88&#45;&gt;Node0xa330fe8 -->
<g id="edge30" class="edge"><title>Node0xa330f88&#45;&gt;Node0xa330fe8</title>
<path fill="none" stroke="black" d="M377.184,-276.91C387.808,-267.276 399.824,-256.38 411.399,-245.884"/>
<polygon fill="black" stroke="black" points="413.866,-248.371 418.923,-239.061 409.164,-243.186 413.866,-248.371"/>
</g>
<!-- Node0xa330fb8&#45;&gt;Node0xa330fe8 -->
<g id="edge32" class="edge"><title>Node0xa330fb8&#45;&gt;Node0xa330fe8</title>
<path fill="none" stroke="black" d="M467.75,-276.91C467.105,-268.285 466.385,-258.649 465.678,-249.194"/>
<polygon fill="black" stroke="black" points="469.156,-248.772 464.92,-239.061 462.176,-249.294 469.156,-248.772"/>
</g>
<!-- Node0xa330fe8&#45;&gt;Node0xa331018 -->
<g id="edge34" class="edge"><title>Node0xa330fe8&#45;&gt;Node0xa331018</title>
<path fill="none" stroke="black" d="M391.422,-160.963C372.581,-150.543 351.9,-139.104 331.945,-128.067"/>
<polygon fill="black" stroke="black" points="333.587,-124.975 323.142,-123.198 330.199,-131.101 333.587,-124.975"/>
</g>
<!-- Node0xa331048 -->
<g id="node33" class="node"><title>Node0xa331048</title>
<polygon fill="none" stroke="black" points="212.5,-1219 212.5,-1263 293.5,-1263 293.5,-1219 212.5,-1219"/>
<text text-anchor="start" x="220.5" y="-1246.4" font-family="Times Roman,serif" font-size="14.00">%19: </text>
<text text-anchor="start" x="220.5" y="-1228.4" font-family="Times Roman,serif" font-size="14.00"> ret i32 0</text>
</g>
</g>
</svg>
