<?xml version="1.0" encoding="UTF-8" standalone="no"?>
<!DOCTYPE svg PUBLIC "-//W3C//DTD SVG 1.1//EN"
 "http://www.w3.org/Graphics/SVG/1.1/DTD/svg11.dtd">
<!-- Generated by graphviz version 2.26.3 (20100126.1600)
 -->
<!-- Title: CFG for &#39;main&#39; function Pages: 1 -->
<svg width="2048pt" height="1022pt"
 viewBox="0.00 0.00 2048.00 1022.00" xmlns="http://www.w3.org/2000/svg" xmlns:xlink="http://www.w3.org/1999/xlink">
<g id="graph1" class="graph" transform="scale(1 1) rotate(0) translate(4 1018)">
<title>CFG for &#39;main&#39; function</title>
<polygon fill="white" stroke="white" points="-4,5 -4,-1018 2045,-1018 2045,5 -4,5"/>
<text text-anchor="middle" x="1020" y="-9.4" font-family="Times Roman,serif" font-size="14.00">CFG for &#39;main&#39; function</text>
<!-- Node0x993f038 -->
<g id="node1" class="node"><title>Node0x993f038</title>
<polygon fill="none" stroke="black" points="853.5,-953 853.5,-1013 952.5,-1013 952.5,-953 853.5,-953"/>
<text text-anchor="start" x="861.5" y="-996.4" font-family="Times Roman,serif" font-size="14.00">%0:</text>
<text text-anchor="start" x="861.5" y="-962.4" font-family="Times Roman,serif" font-size="14.00"> br label %1</text>
</g>
<!-- Node0x993cd68 -->
<g id="node3" class="node"><title>Node0x993cd68</title>
<polygon fill="none" stroke="black" points="758,-775 758,-915 1048,-915 1048,-775 758,-775"/>
<text text-anchor="start" x="766" y="-898.4" font-family="Times Roman,serif" font-size="14.00">%1:</text>
<text text-anchor="start" x="766" y="-864.4" font-family="Times Roman,serif" font-size="14.00"> %x.0 = phi i32 [ 0, %0 ], [ %11, %10 ]</text>
<text text-anchor="start" x="766" y="-846.4" font-family="Times Roman,serif" font-size="14.00"> %y.0 = phi i32 [ 0, %0 ], [ %y.1, %10 ]</text>
<text text-anchor="start" x="766" y="-828.4" font-family="Times Roman,serif" font-size="14.00"> %2 = icmp sle i32 %x.0, 50</text>
<text text-anchor="start" x="766" y="-810.4" font-family="Times Roman,serif" font-size="14.00"> br i1 %2, label %3, label %5</text>
<polyline fill="none" stroke="black" points="758,-801 1048,-801 "/>
<text text-anchor="middle" x="830.5" y="-784.4" font-family="Times Roman,serif" font-size="14.00">T</text>
<polyline fill="none" stroke="black" points="903,-775 903,-801 "/>
<text text-anchor="middle" x="975.5" y="-784.4" font-family="Times Roman,serif" font-size="14.00">F</text>
</g>
<!-- Node0x993f038&#45;&gt;Node0x993cd68 -->
<g id="edge2" class="edge"><title>Node0x993f038&#45;&gt;Node0x993cd68</title>
<path fill="none" stroke="black" d="M903,-952.715C903,-944.412 903,-935.004 903,-925.288"/>
<polygon fill="black" stroke="black" points="906.5,-925.086 903,-915.086 899.5,-925.086 906.5,-925.086"/>
</g>
<!-- Node0x993cd98 -->
<g id="node5" class="node"><title>Node0x993cd98</title>
<polygon fill="none" stroke="black" points="652,-659 652,-737 856,-737 856,-659 652,-659"/>
<text text-anchor="start" x="660" y="-720.4" font-family="Times Roman,serif" font-size="14.00">%3:</text>
<text text-anchor="start" x="660" y="-686.4" font-family="Times Roman,serif" font-size="14.00"> %4 = add nsw i32 %y.0, 1</text>
<text text-anchor="start" x="660" y="-668.4" font-family="Times Roman,serif" font-size="14.00"> br label %7</text>
</g>
<!-- Node0x993cd68&#45;&gt;Node0x993cd98 -->
<g id="edge4" class="edge"><title>Node0x993cd68:s0&#45;&gt;Node0x993cd98</title>
<path fill="none" stroke="black" d="M757,-788C738.24,-788 736.408,-768.226 739.756,-747.215"/>
<polygon fill="black" stroke="black" points="743.228,-747.696 741.69,-737.213 736.355,-746.367 743.228,-747.696"/>
</g>
<!-- Node0x993f438 -->
<g id="node7" class="node"><title>Node0x993f438</title>
<polygon fill="none" stroke="black" points="930.5,-659 930.5,-737 1139.5,-737 1139.5,-659 930.5,-659"/>
<text text-anchor="start" x="938.5" y="-720.4" font-family="Times Roman,serif" font-size="14.00">%5:</text>
<text text-anchor="start" x="938.5" y="-686.4" font-family="Times Roman,serif" font-size="14.00"> %6 = add nsw i32 %y.0, &#45;1</text>
<text text-anchor="start" x="938.5" y="-668.4" font-family="Times Roman,serif" font-size="14.00"> br label %7</text>
</g>
<!-- Node0x993cd68&#45;&gt;Node0x993f438 -->
<g id="edge6" class="edge"><title>Node0x993cd68:s1&#45;&gt;Node0x993f438</title>
<path fill="none" stroke="black" d="M1049,-788C1068.15,-788 1066.05,-767.866 1058.52,-746.645"/>
<polygon fill="black" stroke="black" points="1061.75,-745.278 1054.87,-737.213 1055.22,-747.803 1061.75,-745.278"/>
</g>
<!-- Node0x993f468 -->
<g id="node9" class="node"><title>Node0x993f468</title>
<polygon fill="none" stroke="black" points="592.5,-499 592.5,-621 875.5,-621 875.5,-499 592.5,-499"/>
<text text-anchor="start" x="600.5" y="-604.4" font-family="Times Roman,serif" font-size="14.00">%7:</text>
<text text-anchor="start" x="600.5" y="-570.4" font-family="Times Roman,serif" font-size="14.00"> %y.1 = phi i32 [ %4, %3 ], [ %6, %5 ]</text>
<text text-anchor="start" x="600.5" y="-552.4" font-family="Times Roman,serif" font-size="14.00"> %8 = icmp slt i32 %y.1, 0</text>
<text text-anchor="start" x="600.5" y="-534.4" font-family="Times Roman,serif" font-size="14.00"> br i1 %8, label %9, label %10</text>
<polyline fill="none" stroke="black" points="592.5,-525 875.5,-525 "/>
<text text-anchor="middle" x="663.5" y="-508.4" font-family="Times Roman,serif" font-size="14.00">T</text>
<polyline fill="none" stroke="black" points="734.5,-499 734.5,-525 "/>
<text text-anchor="middle" x="805" y="-508.4" font-family="Times Roman,serif" font-size="14.00">F</text>
</g>
<!-- Node0x993cd98&#45;&gt;Node0x993f468 -->
<g id="edge8" class="edge"><title>Node0x993cd98&#45;&gt;Node0x993f468</title>
<path fill="none" stroke="black" d="M748.322,-658.824C747.062,-650.13 745.689,-640.654 744.308,-631.124"/>
<polygon fill="black" stroke="black" points="747.768,-630.598 742.87,-621.204 740.841,-631.602 747.768,-630.598"/>
</g>
<!-- Node0x993f438&#45;&gt;Node0x993f468 -->
<g id="edge10" class="edge"><title>Node0x993f438&#45;&gt;Node0x993f468</title>
<path fill="none" stroke="black" d="M949.551,-658.824C926.718,-648.356 901.412,-636.754 876.405,-625.289"/>
<polygon fill="black" stroke="black" points="877.76,-622.059 867.211,-621.073 874.842,-628.423 877.76,-622.059"/>
</g>
<!-- Node0x993f498 -->
<g id="node12" class="node"><title>Node0x993f498</title>
<polygon fill="none" stroke="black" points="609,-392 609,-452 717,-452 717,-392 609,-392"/>
<text text-anchor="start" x="617" y="-435.4" font-family="Times Roman,serif" font-size="14.00">%9:</text>
<text text-anchor="start" x="617" y="-401.4" font-family="Times Roman,serif" font-size="14.00"> br label %12</text>
</g>
<!-- Node0x993f468&#45;&gt;Node0x993f498 -->
<g id="edge12" class="edge"><title>Node0x993f468:s0&#45;&gt;Node0x993f498</title>
<path fill="none" stroke="black" d="M663,-499C663,-487.11 663,-474.187 663,-462.384"/>
<polygon fill="black" stroke="black" points="666.5,-462.354 663,-452.354 659.5,-462.354 666.5,-462.354"/>
</g>
<!-- Node0x993f4c8 -->
<g id="node14" class="node"><title>Node0x993f4c8</title>
<polygon fill="none" stroke="black" points="764.5,-383 764.5,-461 979.5,-461 979.5,-383 764.5,-383"/>
<text text-anchor="start" x="772.5" y="-444.4" font-family="Times Roman,serif" font-size="14.00">%10:</text>
<text text-anchor="start" x="772.5" y="-410.4" font-family="Times Roman,serif" font-size="14.00"> %11 = add nsw i32 %x.0, 1</text>
<text text-anchor="start" x="772.5" y="-392.4" font-family="Times Roman,serif" font-size="14.00"> br label %1</text>
</g>
<!-- Node0x993f468&#45;&gt;Node0x993f4c8 -->
<g id="edge14" class="edge"><title>Node0x993f468:s1&#45;&gt;Node0x993f4c8</title>
<path fill="none" stroke="black" d="M877,-512C886.389,-512 885.878,-492.226 882.684,-471.215"/>
<polygon fill="black" stroke="black" points="886.111,-470.49 880.994,-461.213 879.209,-471.657 886.111,-470.49"/>
</g>
<!-- Node0x993e7f0 -->
<g id="node16" class="node"><title>Node0x993e7f0</title>
<polygon fill="none" stroke="black" points="541.5,-241 541.5,-345 784.5,-345 784.5,-241 541.5,-241"/>
<text text-anchor="start" x="549.5" y="-328.4" font-family="Times Roman,serif" font-size="14.00">%12:</text>
<text text-anchor="start" x="549.5" y="-294.4" font-family="Times Roman,serif" font-size="14.00"> %13 = icmp sle i32 %x.0, 102</text>
<text text-anchor="start" x="549.5" y="-276.4" font-family="Times Roman,serif" font-size="14.00"> br i1 %13, label %14, label %15</text>
<polyline fill="none" stroke="black" points="541.5,-267 784.5,-267 "/>
<text text-anchor="middle" x="602.5" y="-250.4" font-family="Times Roman,serif" font-size="14.00">T</text>
<polyline fill="none" stroke="black" points="663.5,-241 663.5,-267 "/>
<text text-anchor="middle" x="724" y="-250.4" font-family="Times Roman,serif" font-size="14.00">F</text>
</g>
<!-- Node0x993f498&#45;&gt;Node0x993e7f0 -->
<g id="edge16" class="edge"><title>Node0x993f498&#45;&gt;Node0x993e7f0</title>
<path fill="none" stroke="black" d="M663,-391.755C663,-380.767 663,-367.91 663,-355.174"/>
<polygon fill="black" stroke="black" points="666.5,-355.024 663,-345.024 659.5,-355.024 666.5,-355.024"/>
</g>
<!-- Node0x993f4c8&#45;&gt;Node0x993cd68 -->
<g id="edge18" class="edge"><title>Node0x993f4c8&#45;&gt;Node0x993cd68</title>
<path fill="none" stroke="black" d="M878.994,-461.344C880.873,-473.102 882.732,-486.045 884,-498 893.657,-589.066 898.542,-694.13 900.919,-764.578"/>
<polygon fill="black" stroke="black" points="897.425,-764.836 901.251,-774.716 904.421,-764.606 897.425,-764.836"/>
</g>
<!-- Node0x993e820 -->
<g id="node19" class="node"><title>Node0x993e820</title>
<polygon fill="none" stroke="black" points="126,-134 126,-194 234,-194 234,-134 126,-134"/>
<text text-anchor="start" x="134" y="-177.4" font-family="Times Roman,serif" font-size="14.00">%14:</text>
<text text-anchor="start" x="134" y="-143.4" font-family="Times Roman,serif" font-size="14.00"> br label %17</text>
</g>
<!-- Node0x993e7f0&#45;&gt;Node0x993e820 -->
<g id="edge20" class="edge"><title>Node0x993e7f0:s0&#45;&gt;Node0x993e820</title>
<path fill="none" stroke="black" d="M540,-254C406.143,-254 367.98,-251.936 243,-204 239.122,-202.512 235.226,-200.77 231.379,-198.86"/>
<polygon fill="black" stroke="black" points="232.993,-195.754 222.522,-194.14 229.701,-201.931 232.993,-195.754"/>
</g>
<!-- Node0x993e850 -->
<g id="node21" class="node"><title>Node0x993e850</title>
<polygon fill="none" stroke="black" points="251.5,-125 251.5,-203 2040.5,-203 2040.5,-125 251.5,-125"/>
<text text-anchor="start" x="259.5" y="-186.4" font-family="Times Roman,serif" font-size="14.00">%15:</text>
<text text-anchor="start" x="259.5" y="-152.4" font-family="Times Roman,serif" font-size="14.00"> call void @__assert_fail(i8* getelementptr inbounds ([9 x i8]* @.str, i32 0, i32 0), i8* getelementptr inbounds ([15 x i8]* @.str1, i32 0, i32 0), i32 18, i8* getelementptr inbounds ([11 x i8]* @__PRETTY_FUNCTION__.main, i32 0, i32 0)) noreturn nounwind</text>
<text text-anchor="start" x="259.5" y="-134.4" font-family="Times Roman,serif" font-size="14.00"> unreachable</text>
</g>
<!-- Node0x993e7f0&#45;&gt;Node0x993e850 -->
<g id="edge22" class="edge"><title>Node0x993e7f0:s1&#45;&gt;Node0x993e850</title>
<path fill="none" stroke="black" d="M786,-254C871.68,-254 965.497,-229.71 1035.87,-206.367"/>
<polygon fill="black" stroke="black" points="1037.28,-209.587 1045.64,-203.083 1035.05,-202.952 1037.28,-209.587"/>
</g>
<!-- Node0x993e8b0 -->
<g id="node23" class="node"><title>Node0x993e8b0</title>
<polygon fill="none" stroke="black" points="76.5,-27 76.5,-87 157.5,-87 157.5,-27 76.5,-27"/>
<text text-anchor="start" x="84.5" y="-70.4" font-family="Times Roman,serif" font-size="14.00">%17:</text>
<text text-anchor="start" x="84.5" y="-36.4" font-family="Times Roman,serif" font-size="14.00"> ret i32 0</text>
</g>
<!-- Node0x993e820&#45;&gt;Node0x993e8b0 -->
<g id="edge24" class="edge"><title>Node0x993e820&#45;&gt;Node0x993e8b0</title>
<path fill="none" stroke="black" d="M162.283,-133.91C155.372,-122.171 147.358,-108.56 140.01,-96.0796"/>
<polygon fill="black" stroke="black" points="142.892,-94.0766 134.802,-87.2351 136.86,-97.6282 142.892,-94.0766"/>
</g>
<!-- Node0x993e880 -->
<g id="node24" class="node"><title>Node0x993e880</title>
<polygon fill="none" stroke="black" points="0,-142 0,-186 108,-186 108,-142 0,-142"/>
<text text-anchor="start" x="8" y="-169.4" font-family="Times Roman,serif" font-size="14.00">%16: </text>
<text text-anchor="start" x="8" y="-151.4" font-family="Times Roman,serif" font-size="14.00"> br label %17</text>
</g>
<!-- Node0x993e880&#45;&gt;Node0x993e8b0 -->
<g id="edge26" class="edge"><title>Node0x993e880&#45;&gt;Node0x993e8b0</title>
<path fill="none" stroke="black" d="M67.0536,-141.83C74.8267,-128.628 84.9136,-111.496 93.9858,-96.0877"/>
<polygon fill="black" stroke="black" points="97.1272,-97.6505 99.1849,-87.2574 91.0951,-94.0989 97.1272,-97.6505"/>
</g>
</g>
</svg>
