<?xml version="1.0" encoding="UTF-8" standalone="no"?>
<!DOCTYPE svg PUBLIC "-//W3C//DTD SVG 1.1//EN"
 "http://www.w3.org/Graphics/SVG/1.1/DTD/svg11.dtd">
<!-- Generated by graphviz version 2.26.3 (20100126.1600)
 -->
<!-- Title: CFG for &#39;f&#39; function Pages: 1 -->
<svg width="613pt" height="702pt"
 viewBox="0.00 0.00 613.00 702.00" xmlns="http://www.w3.org/2000/svg" xmlns:xlink="http://www.w3.org/1999/xlink">
<g id="graph1" class="graph" transform="scale(1 1) rotate(0) translate(4 698)">
<title>CFG for &#39;f&#39; function</title>
<polygon fill="white" stroke="white" points="-4,5 -4,-698 610,-698 610,5 -4,5"/>
<text text-anchor="middle" x="302.5" y="-9.4" font-family="Times Roman,serif" font-size="14.00">CFG for &#39;f&#39; function</text>
<!-- Node0x9c46ef8 -->
<g id="node1" class="node"><title>Node0x9c46ef8</title>
<polygon fill="none" stroke="black" points="295.5,-633 295.5,-693 394.5,-693 394.5,-633 295.5,-633"/>
<text text-anchor="start" x="303.5" y="-676.4" font-family="Times Roman,serif" font-size="14.00">%0:</text>
<text text-anchor="start" x="303.5" y="-642.4" font-family="Times Roman,serif" font-size="14.00"> br label %1</text>
</g>
<!-- Node0x9c46f28 -->
<g id="node3" class="node"><title>Node0x9c46f28</title>
<polygon fill="none" stroke="black" points="207,-455 207,-595 483,-595 483,-455 207,-455"/>
<text text-anchor="start" x="215" y="-578.4" font-family="Times Roman,serif" font-size="14.00">%1:</text>
<text text-anchor="start" x="215" y="-544.4" font-family="Times Roman,serif" font-size="14.00"> %j.0 = phi i32 [ 0, %0 ], [ %j.1, %9 ]</text>
<text text-anchor="start" x="215" y="-526.4" font-family="Times Roman,serif" font-size="14.00"> %i.0 = phi i32 [ 0, %0 ], [ %11, %9 ]</text>
<text text-anchor="start" x="215" y="-508.4" font-family="Times Roman,serif" font-size="14.00"> %2 = icmp slt i32 %i.0, 50</text>
<text text-anchor="start" x="215" y="-490.4" font-family="Times Roman,serif" font-size="14.00"> br i1 %2, label %3, label %12</text>
<polyline fill="none" stroke="black" points="207,-481 483,-481 "/>
<text text-anchor="middle" x="276" y="-464.4" font-family="Times Roman,serif" font-size="14.00">T</text>
<polyline fill="none" stroke="black" points="345,-455 345,-481 "/>
<text text-anchor="middle" x="414" y="-464.4" font-family="Times Roman,serif" font-size="14.00">F</text>
</g>
<!-- Node0x9c46ef8&#45;&gt;Node0x9c46f28 -->
<g id="edge2" class="edge"><title>Node0x9c46ef8&#45;&gt;Node0x9c46f28</title>
<path fill="none" stroke="black" d="M345,-632.715C345,-624.412 345,-615.004 345,-605.288"/>
<polygon fill="black" stroke="black" points="348.5,-605.086 345,-595.086 341.5,-605.086 348.5,-605.086"/>
</g>
<!-- Node0x9c46f58 -->
<g id="node5" class="node"><title>Node0x9c46f58</title>
<polygon fill="none" stroke="black" points="171.5,-348 171.5,-408 270.5,-408 270.5,-348 171.5,-348"/>
<text text-anchor="start" x="179.5" y="-391.4" font-family="Times Roman,serif" font-size="14.00">%3:</text>
<text text-anchor="start" x="179.5" y="-357.4" font-family="Times Roman,serif" font-size="14.00"> br label %4</text>
</g>
<!-- Node0x9c46f28&#45;&gt;Node0x9c46f58 -->
<g id="edge4" class="edge"><title>Node0x9c46f28:s0&#45;&gt;Node0x9c46f58</title>
<path fill="none" stroke="black" d="M206,-468C184.185,-468 190.182,-441.954 200.381,-417.885"/>
<polygon fill="black" stroke="black" points="203.705,-419.026 204.61,-408.47 197.32,-416.158 203.705,-419.026"/>
</g>
<!-- Node0x9c47018 -->
<g id="node7" class="node"><title>Node0x9c47018</title>
<polygon fill="none" stroke="black" points="372.5,-339 372.5,-417 605.5,-417 605.5,-339 372.5,-339"/>
<text text-anchor="start" x="380.5" y="-400.4" font-family="Times Roman,serif" font-size="14.00">%12:</text>
<text text-anchor="start" x="380.5" y="-366.4" font-family="Times Roman,serif" font-size="14.00"> %13 = add nsw i32 %i.0, %j.0</text>
<text text-anchor="start" x="380.5" y="-348.4" font-family="Times Roman,serif" font-size="14.00"> ret i32 %13</text>
</g>
<!-- Node0x9c46f28&#45;&gt;Node0x9c47018 -->
<g id="edge6" class="edge"><title>Node0x9c46f28:s1&#45;&gt;Node0x9c47018</title>
<path fill="none" stroke="black" d="M484,-468C502.778,-468 505.051,-448.226 502.166,-427.215"/>
<polygon fill="black" stroke="black" points="505.591,-426.479 500.452,-417.213 498.691,-427.661 505.591,-426.479"/>
</g>
<!-- Node0x9c46f88 -->
<g id="node9" class="node"><title>Node0x9c46f88</title>
<polygon fill="none" stroke="black" points="28.5,-161 28.5,-301 317.5,-301 317.5,-161 28.5,-161"/>
<text text-anchor="start" x="36.5" y="-284.4" font-family="Times Roman,serif" font-size="14.00">%4:</text>
<text text-anchor="start" x="36.5" y="-250.4" font-family="Times Roman,serif" font-size="14.00"> %j.1 = phi i32 [ 0, %3 ], [ %8, %6 ]</text>
<text text-anchor="start" x="36.5" y="-232.4" font-family="Times Roman,serif" font-size="14.00"> %i.1 = phi i32 [ %i.0, %3 ], [ %7, %6 ]</text>
<text text-anchor="start" x="36.5" y="-214.4" font-family="Times Roman,serif" font-size="14.00"> %5 = icmp slt i32 %j.1, 50</text>
<text text-anchor="start" x="36.5" y="-196.4" font-family="Times Roman,serif" font-size="14.00"> br i1 %5, label %6, label %9</text>
<polyline fill="none" stroke="black" points="28.5,-187 317.5,-187 "/>
<text text-anchor="middle" x="101" y="-170.4" font-family="Times Roman,serif" font-size="14.00">T</text>
<polyline fill="none" stroke="black" points="173.5,-161 173.5,-187 "/>
<text text-anchor="middle" x="245.5" y="-170.4" font-family="Times Roman,serif" font-size="14.00">F</text>
</g>
<!-- Node0x9c46f58&#45;&gt;Node0x9c46f88 -->
<g id="edge8" class="edge"><title>Node0x9c46f58&#45;&gt;Node0x9c46f88</title>
<path fill="none" stroke="black" d="M211.171,-347.898C207.595,-336.948 203.366,-323.996 199.048,-310.771"/>
<polygon fill="black" stroke="black" points="202.327,-309.538 195.896,-301.118 195.673,-311.71 202.327,-309.538"/>
</g>
<!-- Node0x9c46fb8 -->
<g id="node11" class="node"><title>Node0x9c46fb8</title>
<polygon fill="none" stroke="black" points="0,-27 0,-123 202,-123 202,-27 0,-27"/>
<text text-anchor="start" x="8" y="-106.4" font-family="Times Roman,serif" font-size="14.00">%6:</text>
<text text-anchor="start" x="8" y="-72.4" font-family="Times Roman,serif" font-size="14.00"> %7 = add nsw i32 %i.1, 1</text>
<text text-anchor="start" x="8" y="-54.4" font-family="Times Roman,serif" font-size="14.00"> %8 = add nsw i32 %j.1, 1</text>
<text text-anchor="start" x="8" y="-36.4" font-family="Times Roman,serif" font-size="14.00"> br label %4</text>
</g>
<!-- Node0x9c46f88&#45;&gt;Node0x9c46fb8 -->
<g id="edge10" class="edge"><title>Node0x9c46f88:s0&#45;&gt;Node0x9c46fb8</title>
<path fill="none" stroke="black" d="M101,-161C98.8829,-152.009 97.2639,-142.489 96.1428,-133.187"/>
<polygon fill="black" stroke="black" points="99.6221,-132.805 95.1218,-123.214 92.6585,-133.518 99.6221,-132.805"/>
</g>
<!-- Node0x9c46fe8 -->
<g id="node13" class="node"><title>Node0x9c46fe8</title>
<polygon fill="none" stroke="black" points="224,-27 224,-123 456,-123 456,-27 224,-27"/>
<text text-anchor="start" x="232" y="-106.4" font-family="Times Roman,serif" font-size="14.00">%9:</text>
<text text-anchor="start" x="232" y="-72.4" font-family="Times Roman,serif" font-size="14.00"> %10 = sub nsw i32 %i.1, %j.1</text>
<text text-anchor="start" x="232" y="-54.4" font-family="Times Roman,serif" font-size="14.00"> %11 = add nsw i32 %10, 1</text>
<text text-anchor="start" x="232" y="-36.4" font-family="Times Roman,serif" font-size="14.00"> br label %1</text>
</g>
<!-- Node0x9c46f88&#45;&gt;Node0x9c46fe8 -->
<g id="edge12" class="edge"><title>Node0x9c46f88:s1&#45;&gt;Node0x9c46fe8</title>
<path fill="none" stroke="black" d="M319,-174C323.971,-174 328.651,-154.654 332.325,-133.065"/>
<polygon fill="black" stroke="black" points="335.804,-133.48 333.94,-123.05 328.893,-132.365 335.804,-133.48"/>
</g>
<!-- Node0x9c46fb8&#45;&gt;Node0x9c46f88 -->
<g id="edge14" class="edge"><title>Node0x9c46fb8&#45;&gt;Node0x9c46f88</title>
<path fill="none" stroke="black" d="M106.866,-123.356C106.12,-132.169 104.903,-141.439 103.213,-150.479"/>
<polygon fill="black" stroke="black" points="99.728,-150.047 101.105,-160.552 106.58,-151.481 99.728,-150.047"/>
</g>
<!-- Node0x9c46fe8&#45;&gt;Node0x9c46f28 -->
<g id="edge16" class="edge"><title>Node0x9c46fe8&#45;&gt;Node0x9c46f28</title>
<path fill="none" stroke="black" d="M340.534,-123.051C341.387,-199.806 343.066,-350.926 344.105,-444.423"/>
<polygon fill="black" stroke="black" points="340.608,-444.727 344.219,-454.688 347.607,-444.649 340.608,-444.727"/>
</g>
</g>
</svg>
