<?xml version="1.0" encoding="UTF-8" standalone="no"?>
<!DOCTYPE svg PUBLIC "-//W3C//DTD SVG 1.1//EN"
 "http://www.w3.org/Graphics/SVG/1.1/DTD/svg11.dtd">
<!-- Generated by graphviz version 2.26.3 (20100126.1600)
 -->
<!-- Title: CFG for &#39;rate_limiter&#39; function Pages: 1 -->
<svg width="514pt" height="1218pt"
 viewBox="0.00 0.00 514.00 1218.00" xmlns="http://www.w3.org/2000/svg" xmlns:xlink="http://www.w3.org/1999/xlink">
<g id="graph1" class="graph" transform="scale(1 1) rotate(0) translate(4 1214)">
<title>CFG for &#39;rate_limiter&#39; function</title>
<polygon fill="white" stroke="white" points="-4,5 -4,-1214 511,-1214 511,5 -4,5"/>
<text text-anchor="middle" x="253" y="-9.4" font-family="Times Roman,serif" font-size="14.00">CFG for &#39;rate_limiter&#39; function</text>
<!-- Node0x8d56048 -->
<g id="node1" class="node"><title>Node0x8d56048</title>
<polygon fill="none" stroke="black" points="110.5,-1149 110.5,-1209 209.5,-1209 209.5,-1149 110.5,-1149"/>
<text text-anchor="start" x="118.5" y="-1192.4" font-family="Times Roman,serif" font-size="14.00">%0:</text>
<text text-anchor="start" x="118.5" y="-1158.4" font-family="Times Roman,serif" font-size="14.00"> br label %1</text>
</g>
<!-- Node0x8d56078 -->
<g id="node3" class="node"><title>Node0x8d56078</title>
<polygon fill="none" stroke="black" points="-0.5,-971 -0.5,-1111 320.5,-1111 320.5,-971 -0.5,-971"/>
<text text-anchor="start" x="7.5" y="-1094.4" font-family="Times Roman,serif" font-size="14.00">%1:</text>
<text text-anchor="start" x="7.5" y="-1060.4" font-family="Times Roman,serif" font-size="14.00"> %x_old.0 = phi i32 [ 0, %0 ], [ %x.2, %17 ]</text>
<text text-anchor="start" x="7.5" y="-1042.4" font-family="Times Roman,serif" font-size="14.00"> %2 = call i32 (...)* @input()</text>
<text text-anchor="start" x="7.5" y="-1024.4" font-family="Times Roman,serif" font-size="14.00"> %3 = icmp slt i32 %2, &#45;100000</text>
<text text-anchor="start" x="7.5" y="-1006.4" font-family="Times Roman,serif" font-size="14.00"> br i1 %3, label %6, label %4</text>
<polyline fill="none" stroke="black" points="-0.5,-997 320.5,-997 "/>
<text text-anchor="middle" x="80" y="-980.4" font-family="Times Roman,serif" font-size="14.00">T</text>
<polyline fill="none" stroke="black" points="160.5,-971 160.5,-997 "/>
<text text-anchor="middle" x="240.5" y="-980.4" font-family="Times Roman,serif" font-size="14.00">F</text>
</g>
<!-- Node0x8d56048&#45;&gt;Node0x8d56078 -->
<g id="edge2" class="edge"><title>Node0x8d56048&#45;&gt;Node0x8d56078</title>
<path fill="none" stroke="black" d="M160,-1148.72C160,-1140.41 160,-1131 160,-1121.29"/>
<polygon fill="black" stroke="black" points="163.5,-1121.09 160,-1111.09 156.5,-1121.09 163.5,-1121.09"/>
</g>
<!-- Node0x8d560d8 -->
<g id="node5" class="node"><title>Node0x8d560d8</title>
<polygon fill="none" stroke="black" points="157.5,-731 157.5,-791 256.5,-791 256.5,-731 157.5,-731"/>
<text text-anchor="start" x="165.5" y="-774.4" font-family="Times Roman,serif" font-size="14.00">%6:</text>
<text text-anchor="start" x="165.5" y="-740.4" font-family="Times Roman,serif" font-size="14.00"> br label %7</text>
</g>
<!-- Node0x8d56078&#45;&gt;Node0x8d560d8 -->
<g id="edge4" class="edge"><title>Node0x8d56078:s0&#45;&gt;Node0x8d560d8</title>
<path fill="none" stroke="black" d="M80,-971C80,-902.247 100.631,-885.05 139,-828 146.006,-817.583 154.82,-807.464 163.758,-798.379"/>
<polygon fill="black" stroke="black" points="166.249,-800.839 170.921,-791.329 161.339,-795.85 166.249,-800.839"/>
</g>
<!-- Node0x8d560a8 -->
<g id="node7" class="node"><title>Node0x8d560a8</title>
<polygon fill="none" stroke="black" points="148,-829 148,-933 386,-933 386,-829 148,-829"/>
<text text-anchor="start" x="156" y="-916.4" font-family="Times Roman,serif" font-size="14.00">%4:</text>
<text text-anchor="start" x="156" y="-882.4" font-family="Times Roman,serif" font-size="14.00"> %5 = icmp sgt i32 %2, 100000</text>
<text text-anchor="start" x="156" y="-864.4" font-family="Times Roman,serif" font-size="14.00"> br i1 %5, label %6, label %7</text>
<polyline fill="none" stroke="black" points="148,-855 386,-855 "/>
<text text-anchor="middle" x="207.5" y="-838.4" font-family="Times Roman,serif" font-size="14.00">T</text>
<polyline fill="none" stroke="black" points="267,-829 267,-855 "/>
<text text-anchor="middle" x="326.5" y="-838.4" font-family="Times Roman,serif" font-size="14.00">F</text>
</g>
<!-- Node0x8d56078&#45;&gt;Node0x8d560a8 -->
<g id="edge6" class="edge"><title>Node0x8d56078:s1&#45;&gt;Node0x8d560a8</title>
<path fill="none" stroke="black" d="M241,-971C241,-961.803 242.269,-952.278 244.245,-943.019"/>
<polygon fill="black" stroke="black" points="247.694,-943.646 246.642,-933.103 240.89,-942.001 247.694,-943.646"/>
</g>
<!-- Node0x8d56108 -->
<g id="node10" class="node"><title>Node0x8d56108</title>
<polygon fill="none" stroke="black" points="202,-553 202,-693 474,-693 474,-553 202,-553"/>
<text text-anchor="start" x="210" y="-676.4" font-family="Times Roman,serif" font-size="14.00">%7:</text>
<text text-anchor="start" x="210" y="-642.4" font-family="Times Roman,serif" font-size="14.00"> %x.0 = phi i32 [ 0, %6 ], [ %2, %4 ]</text>
<text text-anchor="start" x="210" y="-624.4" font-family="Times Roman,serif" font-size="14.00"> %8 = add nsw i32 %x_old.0, 10</text>
<text text-anchor="start" x="210" y="-606.4" font-family="Times Roman,serif" font-size="14.00"> %9 = icmp sgt i32 %x.0, %8</text>
<text text-anchor="start" x="210" y="-588.4" font-family="Times Roman,serif" font-size="14.00"> br i1 %9, label %10, label %12</text>
<polyline fill="none" stroke="black" points="202,-579 474,-579 "/>
<text text-anchor="middle" x="270" y="-562.4" font-family="Times Roman,serif" font-size="14.00">T</text>
<polyline fill="none" stroke="black" points="338,-553 338,-579 "/>
<text text-anchor="middle" x="406" y="-562.4" font-family="Times Roman,serif" font-size="14.00">F</text>
</g>
<!-- Node0x8d560d8&#45;&gt;Node0x8d56108 -->
<g id="edge12" class="edge"><title>Node0x8d560d8&#45;&gt;Node0x8d56108</title>
<path fill="none" stroke="black" d="M235.749,-730.715C244.377,-721.626 254.263,-711.211 264.413,-700.519"/>
<polygon fill="black" stroke="black" points="267.123,-702.748 271.469,-693.086 262.046,-697.929 267.123,-702.748"/>
</g>
<!-- Node0x8d560a8&#45;&gt;Node0x8d560d8 -->
<g id="edge8" class="edge"><title>Node0x8d560a8:s0&#45;&gt;Node0x8d560d8</title>
<path fill="none" stroke="black" d="M207,-829C207,-819.994 207,-810.316 207,-801.168"/>
<polygon fill="black" stroke="black" points="210.5,-801.127 207,-791.127 203.5,-801.127 210.5,-801.127"/>
</g>
<!-- Node0x8d560a8&#45;&gt;Node0x8d56108 -->
<g id="edge10" class="edge"><title>Node0x8d560a8:s1&#45;&gt;Node0x8d56108</title>
<path fill="none" stroke="black" d="M327,-829C327,-787.411 329.263,-741.166 331.737,-703.046"/>
<polygon fill="black" stroke="black" points="335.231,-703.24 332.403,-693.03 328.247,-702.776 335.231,-703.24"/>
</g>
<!-- Node0x8d56138 -->
<g id="node13" class="node"><title>Node0x8d56138</title>
<polygon fill="none" stroke="black" points="146,-437 146,-515 398,-515 398,-437 146,-437"/>
<text text-anchor="start" x="154" y="-498.4" font-family="Times Roman,serif" font-size="14.00">%10:</text>
<text text-anchor="start" x="154" y="-464.4" font-family="Times Roman,serif" font-size="14.00"> %11 = add nsw i32 %x_old.0, 10</text>
<text text-anchor="start" x="154" y="-446.4" font-family="Times Roman,serif" font-size="14.00"> br label %12</text>
</g>
<!-- Node0x8d56108&#45;&gt;Node0x8d56138 -->
<g id="edge14" class="edge"><title>Node0x8d56108:s0&#45;&gt;Node0x8d56138</title>
<path fill="none" stroke="black" d="M270,-553C270,-544.061 270.136,-534.541 270.338,-525.352"/>
<polygon fill="black" stroke="black" points="273.841,-525.25 270.589,-515.167 266.843,-525.077 273.841,-525.25"/>
</g>
<!-- Node0x8d56168 -->
<g id="node15" class="node"><title>Node0x8d56168</title>
<polygon fill="none" stroke="black" points="190,-259 190,-399 506,-399 506,-259 190,-259"/>
<text text-anchor="start" x="198" y="-382.4" font-family="Times Roman,serif" font-size="14.00">%12:</text>
<text text-anchor="start" x="198" y="-348.4" font-family="Times Roman,serif" font-size="14.00"> %x.1 = phi i32 [ %11, %10 ], [ %x.0, %7 ]</text>
<text text-anchor="start" x="198" y="-330.4" font-family="Times Roman,serif" font-size="14.00"> %13 = sub nsw i32 %x_old.0, 10</text>
<text text-anchor="start" x="198" y="-312.4" font-family="Times Roman,serif" font-size="14.00"> %14 = icmp slt i32 %x.1, %13</text>
<text text-anchor="start" x="198" y="-294.4" font-family="Times Roman,serif" font-size="14.00"> br i1 %14, label %15, label %17</text>
<polyline fill="none" stroke="black" points="190,-285 506,-285 "/>
<text text-anchor="middle" x="269" y="-268.4" font-family="Times Roman,serif" font-size="14.00">T</text>
<polyline fill="none" stroke="black" points="348,-259 348,-285 "/>
<text text-anchor="middle" x="427" y="-268.4" font-family="Times Roman,serif" font-size="14.00">F</text>
</g>
<!-- Node0x8d56108&#45;&gt;Node0x8d56168 -->
<g id="edge16" class="edge"><title>Node0x8d56108:s1&#45;&gt;Node0x8d56168</title>
<path fill="none" stroke="black" d="M406,-553C406,-500.998 419.964,-486.36 407,-436 404.625,-426.776 401.269,-417.495 397.347,-408.462"/>
<polygon fill="black" stroke="black" points="400.426,-406.78 393.074,-399.151 394.064,-409.7 400.426,-406.78"/>
</g>
<!-- Node0x8d56138&#45;&gt;Node0x8d56168 -->
<g id="edge18" class="edge"><title>Node0x8d56138&#45;&gt;Node0x8d56168</title>
<path fill="none" stroke="black" d="M292.167,-436.993C296.78,-428.071 301.846,-418.272 306.986,-408.33"/>
<polygon fill="black" stroke="black" points="310.232,-409.671 311.716,-399.181 304.014,-406.457 310.232,-409.671"/>
</g>
<!-- Node0x8d56198 -->
<g id="node18" class="node"><title>Node0x8d56198</title>
<polygon fill="none" stroke="black" points="145.5,-143 145.5,-221 396.5,-221 396.5,-143 145.5,-143"/>
<text text-anchor="start" x="153.5" y="-204.4" font-family="Times Roman,serif" font-size="14.00">%15:</text>
<text text-anchor="start" x="153.5" y="-170.4" font-family="Times Roman,serif" font-size="14.00"> %16 = sub nsw i32 %x_old.0, 10</text>
<text text-anchor="start" x="153.5" y="-152.4" font-family="Times Roman,serif" font-size="14.00"> br label %17</text>
</g>
<!-- Node0x8d56168&#45;&gt;Node0x8d56198 -->
<g id="edge20" class="edge"><title>Node0x8d56168:s0&#45;&gt;Node0x8d56198</title>
<path fill="none" stroke="black" d="M269,-259C269,-250.061 269.136,-240.541 269.338,-231.352"/>
<polygon fill="black" stroke="black" points="272.841,-231.25 269.589,-221.167 265.843,-231.077 272.841,-231.25"/>
</g>
<!-- Node0x8d561c8 -->
<g id="node20" class="node"><title>Node0x8d561c8</title>
<polygon fill="none" stroke="black" points="108.5,-27 108.5,-105 433.5,-105 433.5,-27 108.5,-27"/>
<text text-anchor="start" x="116.5" y="-88.4" font-family="Times Roman,serif" font-size="14.00">%17:</text>
<text text-anchor="start" x="116.5" y="-54.4" font-family="Times Roman,serif" font-size="14.00"> %x.2 = phi i32 [ %16, %15 ], [ %x.1, %12 ]</text>
<text text-anchor="start" x="116.5" y="-36.4" font-family="Times Roman,serif" font-size="14.00"> br label %1</text>
</g>
<!-- Node0x8d56168&#45;&gt;Node0x8d561c8 -->
<g id="edge22" class="edge"><title>Node0x8d56168:s1&#45;&gt;Node0x8d561c8</title>
<path fill="none" stroke="black" d="M427,-259C427,-206.089 435.759,-185.052 405,-142 396.473,-130.065 385.449,-119.756 373.39,-110.923"/>
<polygon fill="black" stroke="black" points="375.109,-107.856 364.894,-105.043 371.125,-113.612 375.109,-107.856"/>
</g>
<!-- Node0x8d56198&#45;&gt;Node0x8d561c8 -->
<g id="edge24" class="edge"><title>Node0x8d56198&#45;&gt;Node0x8d561c8</title>
<path fill="none" stroke="black" d="M271,-142.728C271,-133.941 271,-124.511 271,-115.374"/>
<polygon fill="black" stroke="black" points="274.5,-115.232 271,-105.232 267.5,-115.232 274.5,-115.232"/>
</g>
<!-- Node0x8d561c8&#45;&gt;Node0x8d56078 -->
<g id="edge26" class="edge"><title>Node0x8d561c8&#45;&gt;Node0x8d56078</title>
<path fill="none" stroke="black" d="M175.066,-105.02C160.223,-115.004 146.645,-127.216 137,-142 91.354,-211.966 118,-245.461 118,-329 118,-761 118,-761 118,-761 118,-829.049 130.282,-905.382 141.563,-961.139"/>
<polygon fill="black" stroke="black" points="138.139,-961.864 143.581,-970.954 144.995,-960.454 138.139,-961.864"/>
</g>
<!-- Node0x8d561f8 -->
<g id="node23" class="node"><title>Node0x8d561f8</title>
<polygon fill="none" stroke="black" points="227,-1157 227,-1201 301,-1201 301,-1157 227,-1157"/>
<text text-anchor="start" x="235" y="-1184.4" font-family="Times Roman,serif" font-size="14.00">%18: </text>
<text text-anchor="start" x="235" y="-1166.4" font-family="Times Roman,serif" font-size="14.00"> ret void</text>
</g>
</g>
</svg>
