<?xml version="1.0" encoding="UTF-8" standalone="no"?>
<!DOCTYPE svg PUBLIC "-//W3C//DTD SVG 1.1//EN"
 "http://www.w3.org/Graphics/SVG/1.1/DTD/svg11.dtd">
<!-- Generated by graphviz version 2.26.3 (20100126.1600)
 -->
<!-- Title: CFG for &#39;sqrt&#39; function Pages: 1 -->
<svg width="857pt" height="1652pt"
 viewBox="0.00 0.00 857.00 1652.00" xmlns="http://www.w3.org/2000/svg" xmlns:xlink="http://www.w3.org/1999/xlink">
<g id="graph1" class="graph" transform="scale(1 1) rotate(0) translate(4 1648)">
<title>CFG for &#39;sqrt&#39; function</title>
<polygon fill="white" stroke="white" points="-4,5 -4,-1648 854,-1648 854,5 -4,5"/>
<text text-anchor="middle" x="424.5" y="-9.4" font-family="Times Roman,serif" font-size="14.00">CFG for &#39;sqrt&#39; function</text>
<!-- Node0x9703220 -->
<g id="node1" class="node"><title>Node0x9703220</title>
<polygon fill="none" stroke="black" points="286.5,-1501 286.5,-1643 601.5,-1643 601.5,-1501 286.5,-1501"/>
<text text-anchor="start" x="294.5" y="-1626.4" font-family="Times Roman,serif" font-size="14.00">%1:</text>
<text text-anchor="start" x="294.5" y="-1608.4" font-family="Times Roman,serif" font-size="14.00"> %val = fptrunc double %0 to float</text>
<text text-anchor="start" x="294.5" y="-1590.4" font-family="Times Roman,serif" font-size="14.00"> %2 = fdiv float %val, 1.000000e+01</text>
<text text-anchor="start" x="294.5" y="-1572.4" font-family="Times Roman,serif" font-size="14.00"> %3 = fcmp oeq float %val, 0.000000e+00</text>
<text text-anchor="start" x="294.5" y="-1554.4" font-family="Times Roman,serif" font-size="14.00"> %&quot;1&quot; = add i32 0, 17</text>
<text text-anchor="start" x="294.5" y="-1536.4" font-family="Times Roman,serif" font-size="14.00"> br i1 %3, label %4, label %5</text>
<polyline fill="none" stroke="black" points="286.5,-1527 601.5,-1527 "/>
<text text-anchor="middle" x="365.5" y="-1510.4" font-family="Times Roman,serif" font-size="14.00">T</text>
<polyline fill="none" stroke="black" points="444.5,-1501 444.5,-1527 "/>
<text text-anchor="middle" x="523" y="-1510.4" font-family="Times Roman,serif" font-size="14.00">F</text>
</g>
<!-- Node0x9703250 -->
<g id="node3" class="node"><title>Node0x9703250</title>
<polygon fill="none" stroke="black" points="153.5,-1211 153.5,-1289 338.5,-1289 338.5,-1211 153.5,-1211"/>
<text text-anchor="start" x="161.5" y="-1272.4" font-family="Times Roman,serif" font-size="14.00">%4:</text>
<text text-anchor="start" x="161.5" y="-1238.4" font-family="Times Roman,serif" font-size="14.00"> %&quot;3&quot; = add i32 %&quot;1&quot;, 2</text>
<text text-anchor="start" x="161.5" y="-1220.4" font-family="Times Roman,serif" font-size="14.00"> br label %32</text>
</g>
<!-- Node0x9703220&#45;&gt;Node0x9703250 -->
<g id="edge2" class="edge"><title>Node0x9703220:s0&#45;&gt;Node0x9703250</title>
<path fill="none" stroke="black" d="M365,-1501C365,-1423.96 318.656,-1345.32 283.811,-1297.08"/>
<polygon fill="black" stroke="black" points="286.631,-1295.01 277.89,-1289.02 280.989,-1299.16 286.631,-1295.01"/>
</g>
<!-- Node0x9703280 -->
<g id="node5" class="node"><title>Node0x9703280</title>
<polygon fill="none" stroke="black" points="506.5,-1385 506.5,-1463 691.5,-1463 691.5,-1385 506.5,-1385"/>
<text text-anchor="start" x="514.5" y="-1446.4" font-family="Times Roman,serif" font-size="14.00">%5:</text>
<text text-anchor="start" x="514.5" y="-1412.4" font-family="Times Roman,serif" font-size="14.00"> %&quot;5&quot; = add i32 %&quot;1&quot;, 2</text>
<text text-anchor="start" x="514.5" y="-1394.4" font-family="Times Roman,serif" font-size="14.00"> br label %6</text>
</g>
<!-- Node0x9703220&#45;&gt;Node0x9703280 -->
<g id="edge4" class="edge"><title>Node0x9703220:s1&#45;&gt;Node0x9703280</title>
<path fill="none" stroke="black" d="M603,-1514C621.853,-1514 622.065,-1494.05 617.011,-1472.93"/>
<polygon fill="black" stroke="black" points="620.369,-1471.94 614.366,-1463.21 613.615,-1473.78 620.369,-1471.94"/>
</g>
<!-- Node0x9703460 -->
<g id="node7" class="node"><title>Node0x9703460</title>
<polygon fill="none" stroke="black" points="0,-720 0,-834 422,-834 422,-720 0,-720"/>
<text text-anchor="start" x="8" y="-817.4" font-family="Times Roman,serif" font-size="14.00">%32:</text>
<text text-anchor="start" x="8" y="-783.4" font-family="Times Roman,serif" font-size="14.00"> %x.2 = phi float [ 0.000000e+00, %4 ], [ %x.0, %31 ]</text>
<text text-anchor="start" x="8" y="-765.4" font-family="Times Roman,serif" font-size="14.00"> %CostCounter_0.3 = phi i32 [ %&quot;3&quot;, %4 ], [ %&quot;23&quot;, %31 ]</text>
<text text-anchor="start" x="8" y="-747.4" font-family="Times Roman,serif" font-size="14.00"> %&quot;25&quot; = add i32 %CostCounter_0.3, 2</text>
<text text-anchor="start" x="8" y="-729.4" font-family="Times Roman,serif" font-size="14.00"> ret float %x.2</text>
</g>
<!-- Node0x9703250&#45;&gt;Node0x9703460 -->
<g id="edge6" class="edge"><title>Node0x9703250&#45;&gt;Node0x9703460</title>
<path fill="none" stroke="black" d="M240.659,-1210.78C237.187,-1184.1 232.802,-1147.98 230,-1116 221.752,-1021.89 216.384,-912.741 213.523,-844.275"/>
<polygon fill="black" stroke="black" points="217.011,-843.908 213.103,-834.06 210.017,-844.196 217.011,-843.908"/>
</g>
<!-- Node0x97032b0 -->
<g id="node9" class="node"><title>Node0x97032b0</title>
<polygon fill="none" stroke="black" points="427,-1153 427,-1347 849,-1347 849,-1153 427,-1153"/>
<text text-anchor="start" x="435" y="-1330.4" font-family="Times Roman,serif" font-size="14.00">%6:</text>
<text text-anchor="start" x="435" y="-1296.4" font-family="Times Roman,serif" font-size="14.00"> %i.0 = phi i32 [ 1, %5 ], [ %30, %29 ]</text>
<text text-anchor="start" x="435" y="-1278.4" font-family="Times Roman,serif" font-size="14.00"> %flag.0 = phi i32 [ 0, %5 ], [ %flag.2, %29 ]</text>
<text text-anchor="start" x="435" y="-1260.4" font-family="Times Roman,serif" font-size="14.00"> %x.0 = phi float [ %2, %5 ], [ %x.1, %29 ]</text>
<text text-anchor="start" x="435" y="-1242.4" font-family="Times Roman,serif" font-size="14.00"> %CostCounter_0.0 = phi i32 [ %&quot;5&quot;, %5 ], [ %&quot;21&quot;, %29 ]</text>
<text text-anchor="start" x="435" y="-1224.4" font-family="Times Roman,serif" font-size="14.00"> %7 = icmp slt i32 %i.0, 20</text>
<text text-anchor="start" x="435" y="-1206.4" font-family="Times Roman,serif" font-size="14.00"> %&quot;7&quot; = add i32 %CostCounter_0.0, 3</text>
<text text-anchor="start" x="435" y="-1188.4" font-family="Times Roman,serif" font-size="14.00"> br i1 %7, label %8, label %31</text>
<polyline fill="none" stroke="black" points="427,-1179 849,-1179 "/>
<text text-anchor="middle" x="532.5" y="-1162.4" font-family="Times Roman,serif" font-size="14.00">T</text>
<polyline fill="none" stroke="black" points="638,-1153 638,-1179 "/>
<text text-anchor="middle" x="743.5" y="-1162.4" font-family="Times Roman,serif" font-size="14.00">F</text>
</g>
<!-- Node0x9703280&#45;&gt;Node0x97032b0 -->
<g id="edge8" class="edge"><title>Node0x9703280&#45;&gt;Node0x97032b0</title>
<path fill="none" stroke="black" d="M607.752,-1384.95C609.673,-1376.38 611.795,-1366.92 613.998,-1357.08"/>
<polygon fill="black" stroke="black" points="617.452,-1357.68 616.224,-1347.15 610.622,-1356.15 617.452,-1357.68"/>
</g>
<!-- Node0x97032e0 -->
<g id="node11" class="node"><title>Node0x97032e0</title>
<polygon fill="none" stroke="black" points="451,-993 451,-1115 685,-1115 685,-993 451,-993"/>
<text text-anchor="start" x="459" y="-1098.4" font-family="Times Roman,serif" font-size="14.00">%8:</text>
<text text-anchor="start" x="459" y="-1064.4" font-family="Times Roman,serif" font-size="14.00"> %9 = icmp ne i32 %flag.0, 0</text>
<text text-anchor="start" x="459" y="-1046.4" font-family="Times Roman,serif" font-size="14.00"> %&quot;9&quot; = add i32 %&quot;7&quot;, 3</text>
<text text-anchor="start" x="459" y="-1028.4" font-family="Times Roman,serif" font-size="14.00"> br i1 %9, label %27, label %10</text>
<polyline fill="none" stroke="black" points="451,-1019 685,-1019 "/>
<text text-anchor="middle" x="509.5" y="-1002.4" font-family="Times Roman,serif" font-size="14.00">T</text>
<polyline fill="none" stroke="black" points="568,-993 568,-1019 "/>
<text text-anchor="middle" x="626.5" y="-1002.4" font-family="Times Roman,serif" font-size="14.00">F</text>
</g>
<!-- Node0x97032b0&#45;&gt;Node0x97032e0 -->
<g id="edge10" class="edge"><title>Node0x97032b0:s0&#45;&gt;Node0x97032e0</title>
<path fill="none" stroke="black" d="M532,-1153C532,-1143.73 533.41,-1134.26 535.673,-1125.01"/>
<polygon fill="black" stroke="black" points="539.123,-1125.67 538.436,-1115.1 532.38,-1123.79 539.123,-1125.67"/>
</g>
<!-- Node0x9703430 -->
<g id="node13" class="node"><title>Node0x9703430</title>
<polygon fill="none" stroke="black" points="239,-1015 239,-1093 433,-1093 433,-1015 239,-1015"/>
<text text-anchor="start" x="247" y="-1076.4" font-family="Times Roman,serif" font-size="14.00">%31:</text>
<text text-anchor="start" x="247" y="-1042.4" font-family="Times Roman,serif" font-size="14.00"> %&quot;23&quot; = add i32 %&quot;7&quot;, 1</text>
<text text-anchor="start" x="247" y="-1024.4" font-family="Times Roman,serif" font-size="14.00"> br label %32</text>
</g>
<!-- Node0x97032b0&#45;&gt;Node0x9703430 -->
<g id="edge12" class="edge"><title>Node0x97032b0:s1&#45;&gt;Node0x9703430</title>
<path fill="none" stroke="black" d="M744,-1153C744,-1085.39 506.061,-1137.63 442,-1116 428.46,-1111.43 414.743,-1105 401.871,-1098"/>
<polygon fill="black" stroke="black" points="403.539,-1094.92 393.106,-1093.08 400.112,-1101.03 403.539,-1094.92"/>
</g>
<!-- Node0x97033a0 -->
<g id="node15" class="node"><title>Node0x97033a0</title>
<polygon fill="none" stroke="black" points="250,-483 250,-561 444,-561 444,-483 250,-483"/>
<text text-anchor="start" x="258" y="-544.4" font-family="Times Roman,serif" font-size="14.00">%27:</text>
<text text-anchor="start" x="258" y="-510.4" font-family="Times Roman,serif" font-size="14.00"> %&quot;17&quot; = add i32 %&quot;9&quot;, 3</text>
<text text-anchor="start" x="258" y="-492.4" font-family="Times Roman,serif" font-size="14.00"> br label %28</text>
</g>
<!-- Node0x97032e0&#45;&gt;Node0x97033a0 -->
<g id="edge14" class="edge"><title>Node0x97032e0:s0&#45;&gt;Node0x97033a0</title>
<path fill="none" stroke="black" d="M509,-993C509,-968.783 479.86,-977.645 469,-956 397.244,-812.987 503.543,-740.615 431,-598 425.567,-587.318 417.96,-577.416 409.523,-568.526"/>
<polygon fill="black" stroke="black" points="411.826,-565.88 402.271,-561.303 406.886,-570.839 411.826,-565.88"/>
</g>
<!-- Node0x9703310 -->
<g id="node17" class="node"><title>Node0x9703310</title>
<polygon fill="none" stroke="black" points="477.5,-599 477.5,-955 802.5,-955 802.5,-599 477.5,-599"/>
<text text-anchor="start" x="485.5" y="-938.4" font-family="Times Roman,serif" font-size="14.00">%10:</text>
<text text-anchor="start" x="485.5" y="-904.4" font-family="Times Roman,serif" font-size="14.00"> %11 = fmul float %x.0, %x.0</text>
<text text-anchor="start" x="485.5" y="-886.4" font-family="Times Roman,serif" font-size="14.00"> %12 = fsub float %val, %11</text>
<text text-anchor="start" x="485.5" y="-868.4" font-family="Times Roman,serif" font-size="14.00"> %13 = fpext float %12 to double</text>
<text text-anchor="start" x="485.5" y="-850.4" font-family="Times Roman,serif" font-size="14.00"> %14 = fpext float %x.0 to double</text>
<text text-anchor="start" x="485.5" y="-832.4" font-family="Times Roman,serif" font-size="14.00"> %15 = fmul double 2.000000e+00, %14</text>
<text text-anchor="start" x="485.5" y="-814.4" font-family="Times Roman,serif" font-size="14.00"> %16 = fdiv double %13, %15</text>
<text text-anchor="start" x="485.5" y="-796.4" font-family="Times Roman,serif" font-size="14.00"> %17 = fptrunc double %16 to float</text>
<text text-anchor="start" x="485.5" y="-778.4" font-family="Times Roman,serif" font-size="14.00"> %18 = fadd float %x.0, %17</text>
<text text-anchor="start" x="485.5" y="-760.4" font-family="Times Roman,serif" font-size="14.00"> %19 = fmul float %18, %18</text>
<text text-anchor="start" x="485.5" y="-742.4" font-family="Times Roman,serif" font-size="14.00"> %20 = fsub float %val, %19</text>
<text text-anchor="start" x="485.5" y="-724.4" font-family="Times Roman,serif" font-size="14.00"> %21 = fpext float %20 to double</text>
<text text-anchor="start" x="485.5" y="-706.4" font-family="Times Roman,serif" font-size="14.00"> %22 = call i32 (...)* @fabs(double %21)</text>
<text text-anchor="start" x="485.5" y="-688.4" font-family="Times Roman,serif" font-size="14.00"> %23 = sitofp i32 %22 to double</text>
<text text-anchor="start" x="485.5" y="-670.4" font-family="Times Roman,serif" font-size="14.00"> %24 = fcmp ole double %23, 1.000000e&#45;05</text>
<text text-anchor="start" x="485.5" y="-652.4" font-family="Times Roman,serif" font-size="14.00"> %&quot;11&quot; = add i32 %&quot;9&quot;, 29</text>
<text text-anchor="start" x="485.5" y="-634.4" font-family="Times Roman,serif" font-size="14.00"> br i1 %24, label %25, label %26</text>
<polyline fill="none" stroke="black" points="477.5,-625 802.5,-625 "/>
<text text-anchor="middle" x="559" y="-608.4" font-family="Times Roman,serif" font-size="14.00">T</text>
<polyline fill="none" stroke="black" points="640.5,-599 640.5,-625 "/>
<text text-anchor="middle" x="721.5" y="-608.4" font-family="Times Roman,serif" font-size="14.00">F</text>
</g>
<!-- Node0x97032e0&#45;&gt;Node0x9703310 -->
<g id="edge16" class="edge"><title>Node0x97032e0:s1&#45;&gt;Node0x9703310</title>
<path fill="none" stroke="black" d="M627,-993C627,-983.965 627.115,-974.721 627.323,-965.387"/>
<polygon fill="black" stroke="black" points="630.826,-965.315 627.584,-955.229 623.828,-965.135 630.826,-965.315"/>
</g>
<!-- Node0x9703430&#45;&gt;Node0x9703460 -->
<g id="edge32" class="edge"><title>Node0x9703430&#45;&gt;Node0x9703460</title>
<path fill="none" stroke="black" d="M318.356,-1014.9C298.294,-970.444 265.201,-897.109 241.051,-843.594"/>
<polygon fill="black" stroke="black" points="244.106,-841.855 236.803,-834.179 237.726,-844.734 244.106,-841.855"/>
</g>
<!-- Node0x97033d0 -->
<g id="node24" class="node"><title>Node0x97033d0</title>
<polygon fill="none" stroke="black" points="369,-161 369,-293 809,-293 809,-161 369,-161"/>
<text text-anchor="start" x="377" y="-276.4" font-family="Times Roman,serif" font-size="14.00">%28:</text>
<text text-anchor="start" x="377" y="-242.4" font-family="Times Roman,serif" font-size="14.00"> %flag.2 = phi i32 [ %flag.0, %27 ], [ %flag.1, %26 ]</text>
<text text-anchor="start" x="377" y="-224.4" font-family="Times Roman,serif" font-size="14.00"> %x.1 = phi float [ %x.0, %27 ], [ %18, %26 ]</text>
<text text-anchor="start" x="377" y="-206.4" font-family="Times Roman,serif" font-size="14.00"> %CostCounter_0.2 = phi i32 [ %&quot;17&quot;, %27 ], [ %&quot;15&quot;, %26 ]</text>
<text text-anchor="start" x="377" y="-188.4" font-family="Times Roman,serif" font-size="14.00"> %&quot;19&quot; = add i32 %CostCounter_0.2, 1</text>
<text text-anchor="start" x="377" y="-170.4" font-family="Times Roman,serif" font-size="14.00"> br label %29</text>
</g>
<!-- Node0x97033a0&#45;&gt;Node0x97033d0 -->
<g id="edge26" class="edge"><title>Node0x97033a0&#45;&gt;Node0x97033d0</title>
<path fill="none" stroke="black" d="M338.706,-482.858C332.173,-441.124 328.708,-374.977 360,-330 367.914,-318.626 377.392,-308.488 387.925,-299.456"/>
<polygon fill="black" stroke="black" points="390.225,-302.097 395.774,-293.072 385.808,-296.666 390.225,-302.097"/>
</g>
<!-- Node0x9703340 -->
<g id="node19" class="node"><title>Node0x9703340</title>
<polygon fill="none" stroke="black" points="474.5,-483 474.5,-561 677.5,-561 677.5,-483 474.5,-483"/>
<text text-anchor="start" x="482.5" y="-544.4" font-family="Times Roman,serif" font-size="14.00">%25:</text>
<text text-anchor="start" x="482.5" y="-510.4" font-family="Times Roman,serif" font-size="14.00"> %&quot;13&quot; = add i32 %&quot;11&quot;, 2</text>
<text text-anchor="start" x="482.5" y="-492.4" font-family="Times Roman,serif" font-size="14.00"> br label %26</text>
</g>
<!-- Node0x9703310&#45;&gt;Node0x9703340 -->
<g id="edge18" class="edge"><title>Node0x9703310:s0&#45;&gt;Node0x9703340</title>
<path fill="none" stroke="black" d="M559,-599C559,-589.851 560.158,-580.232 561.871,-571.011"/>
<polygon fill="black" stroke="black" points="565.301,-571.707 563.917,-561.203 558.448,-570.277 565.301,-571.707"/>
</g>
<!-- Node0x9703370 -->
<g id="node21" class="node"><title>Node0x9703370</title>
<polygon fill="none" stroke="black" points="369,-331 369,-445 809,-445 809,-331 369,-331"/>
<text text-anchor="start" x="377" y="-428.4" font-family="Times Roman,serif" font-size="14.00">%26:</text>
<text text-anchor="start" x="377" y="-394.4" font-family="Times Roman,serif" font-size="14.00"> %flag.1 = phi i32 [ 1, %25 ], [ %flag.0, %10 ]</text>
<text text-anchor="start" x="377" y="-376.4" font-family="Times Roman,serif" font-size="14.00"> %CostCounter_0.1 = phi i32 [ %&quot;13&quot;, %25 ], [ %&quot;11&quot;, %10 ]</text>
<text text-anchor="start" x="377" y="-358.4" font-family="Times Roman,serif" font-size="14.00"> %&quot;15&quot; = add i32 %CostCounter_0.1, 1</text>
<text text-anchor="start" x="377" y="-340.4" font-family="Times Roman,serif" font-size="14.00"> br label %28</text>
</g>
<!-- Node0x9703310&#45;&gt;Node0x9703370 -->
<g id="edge20" class="edge"><title>Node0x9703310:s1&#45;&gt;Node0x9703370</title>
<path fill="none" stroke="black" d="M722,-599C722,-544.594 714.428,-528.388 686,-482 679.778,-471.847 672.207,-462.023 664.068,-452.797"/>
<polygon fill="black" stroke="black" points="666.446,-450.211 657.115,-445.194 661.281,-454.935 666.446,-450.211"/>
</g>
<!-- Node0x9703340&#45;&gt;Node0x9703370 -->
<g id="edge22" class="edge"><title>Node0x9703340&#45;&gt;Node0x9703370</title>
<path fill="none" stroke="black" d="M579.795,-482.881C580.632,-474.258 581.541,-464.885 582.452,-455.499"/>
<polygon fill="black" stroke="black" points="585.955,-455.636 583.437,-445.344 578.987,-454.96 585.955,-455.636"/>
</g>
<!-- Node0x9703370&#45;&gt;Node0x97033d0 -->
<g id="edge24" class="edge"><title>Node0x9703370&#45;&gt;Node0x97033d0</title>
<path fill="none" stroke="black" d="M589,-330.784C589,-321.823 589,-312.442 589,-303.138"/>
<polygon fill="black" stroke="black" points="592.5,-303.096 589,-293.096 585.5,-303.097 592.5,-303.096"/>
</g>
<!-- Node0x9703400 -->
<g id="node27" class="node"><title>Node0x9703400</title>
<polygon fill="none" stroke="black" points="607.5,-27 607.5,-123 818.5,-123 818.5,-27 607.5,-27"/>
<text text-anchor="start" x="615.5" y="-106.4" font-family="Times Roman,serif" font-size="14.00">%29:</text>
<text text-anchor="start" x="615.5" y="-72.4" font-family="Times Roman,serif" font-size="14.00"> %30 = add nsw i32 %i.0, 1</text>
<text text-anchor="start" x="615.5" y="-54.4" font-family="Times Roman,serif" font-size="14.00"> %&quot;21&quot; = add i32 %&quot;19&quot;, 4</text>
<text text-anchor="start" x="615.5" y="-36.4" font-family="Times Roman,serif" font-size="14.00"> br label %6</text>
</g>
<!-- Node0x97033d0&#45;&gt;Node0x9703400 -->
<g id="edge28" class="edge"><title>Node0x97033d0&#45;&gt;Node0x9703400</title>
<path fill="none" stroke="black" d="M643.027,-160.773C651.084,-150.898 659.322,-140.799 667.187,-131.158"/>
<polygon fill="black" stroke="black" points="670.085,-133.143 673.694,-123.182 664.66,-128.718 670.085,-133.143"/>
</g>
<!-- Node0x9703400&#45;&gt;Node0x97032b0 -->
<g id="edge30" class="edge"><title>Node0x9703400&#45;&gt;Node0x97032b0</title>
<path fill="none" stroke="black" d="M788.434,-123.112C800.115,-133.855 810.705,-146.214 818,-160 865.56,-249.877 837,-286.315 837,-388 837,-777 837,-777 837,-777 837,-857.39 837.662,-880.16 811,-956 787.695,-1022.29 748.829,-1090.29 713.834,-1144.17"/>
<polygon fill="black" stroke="black" points="710.802,-1142.41 708.253,-1152.7 716.659,-1146.25 710.802,-1142.41"/>
</g>
</g>
</svg>
